<mxfile host="app.diagrams.net" agent="Mozilla/5.0 (Windows NT 10.0; Win64; x64) AppleWebKit/537.36 (KHTML, like Gecko) Chrome/131.0.0.0 Safari/537.36" version="26.0.6">
  <diagram name="페이지-1" id="8iOkab4ulNSNluScQn8t">
    <mxGraphModel dx="2206" dy="1200" grid="1" gridSize="10" guides="1" tooltips="1" connect="1" arrows="1" fold="1" page="1" pageScale="1" pageWidth="827" pageHeight="1169" math="0" shadow="0">
      <root>
        <mxCell id="0" />
        <mxCell id="1" parent="0" />
        <mxCell id="TvJxn3U8qlSnxqmgQSPr-1" value="시작" style="strokeWidth=2;html=1;shape=mxgraph.flowchart.terminator;whiteSpace=wrap;" vertex="1" parent="1">
          <mxGeometry x="330" y="10" width="100" height="60" as="geometry" />
        </mxCell>
        <mxCell id="TvJxn3U8qlSnxqmgQSPr-2" value="끝" style="strokeWidth=2;html=1;shape=mxgraph.flowchart.terminator;whiteSpace=wrap;" vertex="1" parent="1">
          <mxGeometry x="330" y="1500" width="100" height="60" as="geometry" />
        </mxCell>
        <mxCell id="TvJxn3U8qlSnxqmgQSPr-11" style="edgeStyle=orthogonalEdgeStyle;rounded=0;orthogonalLoop=1;jettySize=auto;html=1;entryX=0.5;entryY=0;entryDx=0;entryDy=0;" edge="1" parent="1" source="TvJxn3U8qlSnxqmgQSPr-3" target="TvJxn3U8qlSnxqmgQSPr-4">
          <mxGeometry relative="1" as="geometry" />
        </mxCell>
        <mxCell id="TvJxn3U8qlSnxqmgQSPr-3" value="애완 물품&lt;div&gt;상세 페이지&lt;/div&gt;" style="strokeWidth=2;html=1;shape=mxgraph.flowchart.document2;whiteSpace=wrap;size=0.25;" vertex="1" parent="1">
          <mxGeometry x="330" y="150" width="100" height="60" as="geometry" />
        </mxCell>
        <mxCell id="TvJxn3U8qlSnxqmgQSPr-12" style="edgeStyle=orthogonalEdgeStyle;rounded=0;orthogonalLoop=1;jettySize=auto;html=1;entryX=0.5;entryY=0;entryDx=0;entryDy=0;" edge="1" parent="1" source="TvJxn3U8qlSnxqmgQSPr-4" target="TvJxn3U8qlSnxqmgQSPr-9">
          <mxGeometry relative="1" as="geometry" />
        </mxCell>
        <mxCell id="TvJxn3U8qlSnxqmgQSPr-4" value="구매요청" style="shape=parallelogram;html=1;strokeWidth=2;perimeter=parallelogramPerimeter;whiteSpace=wrap;rounded=1;arcSize=12;size=0.23;" vertex="1" parent="1">
          <mxGeometry x="330" y="290" width="100" height="60" as="geometry" />
        </mxCell>
        <mxCell id="TvJxn3U8qlSnxqmgQSPr-33" style="edgeStyle=orthogonalEdgeStyle;rounded=0;orthogonalLoop=1;jettySize=auto;html=1;entryX=0;entryY=0.5;entryDx=0;entryDy=0;" edge="1" parent="1" source="TvJxn3U8qlSnxqmgQSPr-5" target="TvJxn3U8qlSnxqmgQSPr-32">
          <mxGeometry relative="1" as="geometry" />
        </mxCell>
        <mxCell id="TvJxn3U8qlSnxqmgQSPr-5" value="로그인&lt;div&gt;상태인지&lt;/div&gt;" style="strokeWidth=2;html=1;shape=mxgraph.flowchart.decision;whiteSpace=wrap;" vertex="1" parent="1">
          <mxGeometry x="620" y="410" width="100" height="100" as="geometry" />
        </mxCell>
        <mxCell id="TvJxn3U8qlSnxqmgQSPr-20" style="edgeStyle=orthogonalEdgeStyle;rounded=0;orthogonalLoop=1;jettySize=auto;html=1;entryX=0.5;entryY=0;entryDx=0;entryDy=0;" edge="1" parent="1" source="TvJxn3U8qlSnxqmgQSPr-6" target="TvJxn3U8qlSnxqmgQSPr-19">
          <mxGeometry relative="1" as="geometry" />
        </mxCell>
        <mxCell id="TvJxn3U8qlSnxqmgQSPr-36" style="edgeStyle=orthogonalEdgeStyle;rounded=0;orthogonalLoop=1;jettySize=auto;html=1;" edge="1" parent="1" source="TvJxn3U8qlSnxqmgQSPr-6" target="TvJxn3U8qlSnxqmgQSPr-35">
          <mxGeometry relative="1" as="geometry" />
        </mxCell>
        <mxCell id="TvJxn3U8qlSnxqmgQSPr-6" value="구매자&lt;div&gt;계정인지&lt;/div&gt;" style="strokeWidth=2;html=1;shape=mxgraph.flowchart.decision;whiteSpace=wrap;" vertex="1" parent="1">
          <mxGeometry x="620" y="610" width="100" height="100" as="geometry" />
        </mxCell>
        <mxCell id="TvJxn3U8qlSnxqmgQSPr-25" style="edgeStyle=orthogonalEdgeStyle;rounded=0;orthogonalLoop=1;jettySize=auto;html=1;entryX=1;entryY=0.5;entryDx=0;entryDy=0;" edge="1" parent="1" source="TvJxn3U8qlSnxqmgQSPr-7" target="TvJxn3U8qlSnxqmgQSPr-24">
          <mxGeometry relative="1" as="geometry" />
        </mxCell>
        <mxCell id="TvJxn3U8qlSnxqmgQSPr-7" value="재고가&amp;nbsp;&lt;div&gt;있는지&lt;/div&gt;" style="strokeWidth=2;html=1;shape=mxgraph.flowchart.decision;whiteSpace=wrap;" vertex="1" parent="1">
          <mxGeometry x="832" y="950" width="100" height="100" as="geometry" />
        </mxCell>
        <mxCell id="TvJxn3U8qlSnxqmgQSPr-8" value="TBL_PRODUCT" style="strokeWidth=2;html=1;shape=mxgraph.flowchart.database;whiteSpace=wrap;" vertex="1" parent="1">
          <mxGeometry x="827" y="800" width="110" height="60" as="geometry" />
        </mxCell>
        <mxCell id="TvJxn3U8qlSnxqmgQSPr-13" style="edgeStyle=orthogonalEdgeStyle;rounded=0;orthogonalLoop=1;jettySize=auto;html=1;" edge="1" parent="1" source="TvJxn3U8qlSnxqmgQSPr-9" target="TvJxn3U8qlSnxqmgQSPr-5">
          <mxGeometry relative="1" as="geometry" />
        </mxCell>
        <mxCell id="TvJxn3U8qlSnxqmgQSPr-9" value="구매처리" style="rounded=1;whiteSpace=wrap;html=1;absoluteArcSize=1;arcSize=14;strokeWidth=2;" vertex="1" parent="1">
          <mxGeometry x="330" y="420" width="100" height="80" as="geometry" />
        </mxCell>
        <mxCell id="TvJxn3U8qlSnxqmgQSPr-10" style="edgeStyle=orthogonalEdgeStyle;rounded=0;orthogonalLoop=1;jettySize=auto;html=1;entryX=0.5;entryY=0;entryDx=0;entryDy=0;entryPerimeter=0;" edge="1" parent="1" source="TvJxn3U8qlSnxqmgQSPr-1" target="TvJxn3U8qlSnxqmgQSPr-3">
          <mxGeometry relative="1" as="geometry" />
        </mxCell>
        <mxCell id="TvJxn3U8qlSnxqmgQSPr-14" style="edgeStyle=orthogonalEdgeStyle;rounded=0;orthogonalLoop=1;jettySize=auto;html=1;entryX=0.5;entryY=0;entryDx=0;entryDy=0;entryPerimeter=0;" edge="1" parent="1" source="TvJxn3U8qlSnxqmgQSPr-5" target="TvJxn3U8qlSnxqmgQSPr-6">
          <mxGeometry relative="1" as="geometry" />
        </mxCell>
        <mxCell id="TvJxn3U8qlSnxqmgQSPr-17" value="YES" style="text;html=1;align=center;verticalAlign=middle;resizable=0;points=[];autosize=1;strokeColor=none;fillColor=none;" vertex="1" parent="1">
          <mxGeometry x="665" y="540" width="50" height="30" as="geometry" />
        </mxCell>
        <mxCell id="TvJxn3U8qlSnxqmgQSPr-18" value="YES" style="text;html=1;align=center;verticalAlign=middle;resizable=0;points=[];autosize=1;strokeColor=none;fillColor=none;" vertex="1" parent="1">
          <mxGeometry x="665" y="730" width="50" height="30" as="geometry" />
        </mxCell>
        <mxCell id="TvJxn3U8qlSnxqmgQSPr-21" style="edgeStyle=orthogonalEdgeStyle;rounded=0;orthogonalLoop=1;jettySize=auto;html=1;" edge="1" parent="1" source="TvJxn3U8qlSnxqmgQSPr-19" target="TvJxn3U8qlSnxqmgQSPr-8">
          <mxGeometry relative="1" as="geometry" />
        </mxCell>
        <mxCell id="TvJxn3U8qlSnxqmgQSPr-19" value="재고확인" style="rounded=1;whiteSpace=wrap;html=1;absoluteArcSize=1;arcSize=14;strokeWidth=2;" vertex="1" parent="1">
          <mxGeometry x="620" y="790" width="100" height="80" as="geometry" />
        </mxCell>
        <mxCell id="TvJxn3U8qlSnxqmgQSPr-22" style="edgeStyle=orthogonalEdgeStyle;rounded=0;orthogonalLoop=1;jettySize=auto;html=1;entryX=0.5;entryY=0;entryDx=0;entryDy=0;entryPerimeter=0;" edge="1" parent="1" source="TvJxn3U8qlSnxqmgQSPr-8" target="TvJxn3U8qlSnxqmgQSPr-7">
          <mxGeometry relative="1" as="geometry" />
        </mxCell>
        <mxCell id="TvJxn3U8qlSnxqmgQSPr-23" value="YES" style="text;html=1;align=center;verticalAlign=middle;resizable=0;points=[];autosize=1;strokeColor=none;fillColor=none;" vertex="1" parent="1">
          <mxGeometry x="765" y="968" width="50" height="30" as="geometry" />
        </mxCell>
        <mxCell id="TvJxn3U8qlSnxqmgQSPr-24" value="결제요청처리" style="rounded=1;whiteSpace=wrap;html=1;absoluteArcSize=1;arcSize=14;strokeWidth=2;" vertex="1" parent="1">
          <mxGeometry x="330" y="960" width="100" height="80" as="geometry" />
        </mxCell>
        <mxCell id="TvJxn3U8qlSnxqmgQSPr-26" value="결제 완료 창" style="strokeWidth=2;html=1;shape=mxgraph.flowchart.document2;whiteSpace=wrap;size=0.25;" vertex="1" parent="1">
          <mxGeometry x="330" y="1360" width="100" height="60" as="geometry" />
        </mxCell>
        <mxCell id="TvJxn3U8qlSnxqmgQSPr-30" style="edgeStyle=orthogonalEdgeStyle;rounded=0;orthogonalLoop=1;jettySize=auto;html=1;" edge="1" parent="1" source="TvJxn3U8qlSnxqmgQSPr-27" target="TvJxn3U8qlSnxqmgQSPr-26">
          <mxGeometry relative="1" as="geometry" />
        </mxCell>
        <mxCell id="TvJxn3U8qlSnxqmgQSPr-27" value="제대로&lt;div&gt;결제처리가&lt;/div&gt;&lt;div&gt;되었는가?&lt;/div&gt;" style="strokeWidth=2;html=1;shape=mxgraph.flowchart.decision;whiteSpace=wrap;" vertex="1" parent="1">
          <mxGeometry x="330" y="1120" width="100" height="100" as="geometry" />
        </mxCell>
        <mxCell id="TvJxn3U8qlSnxqmgQSPr-29" style="edgeStyle=orthogonalEdgeStyle;rounded=0;orthogonalLoop=1;jettySize=auto;html=1;entryX=0.5;entryY=0;entryDx=0;entryDy=0;entryPerimeter=0;" edge="1" parent="1" source="TvJxn3U8qlSnxqmgQSPr-24" target="TvJxn3U8qlSnxqmgQSPr-27">
          <mxGeometry relative="1" as="geometry" />
        </mxCell>
        <mxCell id="TvJxn3U8qlSnxqmgQSPr-31" style="edgeStyle=orthogonalEdgeStyle;rounded=0;orthogonalLoop=1;jettySize=auto;html=1;entryX=0.5;entryY=0;entryDx=0;entryDy=0;entryPerimeter=0;" edge="1" parent="1" source="TvJxn3U8qlSnxqmgQSPr-26" target="TvJxn3U8qlSnxqmgQSPr-2">
          <mxGeometry relative="1" as="geometry" />
        </mxCell>
        <mxCell id="TvJxn3U8qlSnxqmgQSPr-32" value="로그인 페이지로&lt;div&gt;이동 처리&lt;/div&gt;" style="rounded=1;whiteSpace=wrap;html=1;absoluteArcSize=1;arcSize=14;strokeWidth=2;" vertex="1" parent="1">
          <mxGeometry x="832" y="420" width="100" height="80" as="geometry" />
        </mxCell>
        <mxCell id="TvJxn3U8qlSnxqmgQSPr-34" value="NO" style="text;html=1;align=center;verticalAlign=middle;resizable=0;points=[];autosize=1;strokeColor=none;fillColor=none;" vertex="1" parent="1">
          <mxGeometry x="750" y="420" width="40" height="30" as="geometry" />
        </mxCell>
        <mxCell id="TvJxn3U8qlSnxqmgQSPr-35" value="구매자 계정&lt;div&gt;전&lt;span style=&quot;background-color: transparent; color: light-dark(rgb(0, 0, 0), rgb(255, 255, 255));&quot;&gt;환&amp;nbsp;&lt;/span&gt;&lt;span style=&quot;background-color: transparent; color: light-dark(rgb(0, 0, 0), rgb(255, 255, 255));&quot;&gt;페이지로&amp;nbsp;&lt;/span&gt;&lt;div&gt;&lt;span style=&quot;background-color: transparent; color: light-dark(rgb(0, 0, 0), rgb(255, 255, 255));&quot;&gt;이동처리&lt;/span&gt;&lt;/div&gt;&lt;/div&gt;" style="rounded=1;whiteSpace=wrap;html=1;absoluteArcSize=1;arcSize=14;strokeWidth=2;" vertex="1" parent="1">
          <mxGeometry x="832" y="620" width="100" height="80" as="geometry" />
        </mxCell>
        <mxCell id="TvJxn3U8qlSnxqmgQSPr-37" value="NO" style="text;html=1;align=center;verticalAlign=middle;resizable=0;points=[];autosize=1;strokeColor=none;fillColor=none;" vertex="1" parent="1">
          <mxGeometry x="750" y="628" width="40" height="30" as="geometry" />
        </mxCell>
        <mxCell id="TvJxn3U8qlSnxqmgQSPr-38" value="로그인 페이지" style="strokeWidth=2;html=1;shape=mxgraph.flowchart.document2;whiteSpace=wrap;size=0.25;" vertex="1" parent="1">
          <mxGeometry x="1090" y="430" width="100" height="60" as="geometry" />
        </mxCell>
        <mxCell id="TvJxn3U8qlSnxqmgQSPr-39" style="edgeStyle=orthogonalEdgeStyle;rounded=0;orthogonalLoop=1;jettySize=auto;html=1;entryX=0;entryY=0.5;entryDx=0;entryDy=0;entryPerimeter=0;" edge="1" parent="1" source="TvJxn3U8qlSnxqmgQSPr-32" target="TvJxn3U8qlSnxqmgQSPr-38">
          <mxGeometry relative="1" as="geometry" />
        </mxCell>
        <mxCell id="TvJxn3U8qlSnxqmgQSPr-40" value="구매자 계정&lt;div&gt;전환 페이지&lt;/div&gt;" style="strokeWidth=2;html=1;shape=mxgraph.flowchart.document2;whiteSpace=wrap;size=0.25;" vertex="1" parent="1">
          <mxGeometry x="1090" y="630" width="100" height="60" as="geometry" />
        </mxCell>
        <mxCell id="TvJxn3U8qlSnxqmgQSPr-41" style="edgeStyle=orthogonalEdgeStyle;rounded=0;orthogonalLoop=1;jettySize=auto;html=1;entryX=0;entryY=0.5;entryDx=0;entryDy=0;entryPerimeter=0;" edge="1" parent="1" source="TvJxn3U8qlSnxqmgQSPr-35" target="TvJxn3U8qlSnxqmgQSPr-40">
          <mxGeometry relative="1" as="geometry" />
        </mxCell>
        <mxCell id="TvJxn3U8qlSnxqmgQSPr-42" value="" style="endArrow=classic;html=1;rounded=0;exitX=1;exitY=0.5;exitDx=0;exitDy=0;exitPerimeter=0;entryX=1.025;entryY=0.361;entryDx=0;entryDy=0;entryPerimeter=0;" edge="1" parent="1" source="TvJxn3U8qlSnxqmgQSPr-7" target="TvJxn3U8qlSnxqmgQSPr-3">
          <mxGeometry width="50" height="50" relative="1" as="geometry">
            <mxPoint x="1030" y="980" as="sourcePoint" />
            <mxPoint x="1080" y="930" as="targetPoint" />
            <Array as="points">
              <mxPoint x="1330" y="1000" />
              <mxPoint x="1330" y="680" />
              <mxPoint x="1330" y="172" />
            </Array>
          </mxGeometry>
        </mxCell>
        <mxCell id="TvJxn3U8qlSnxqmgQSPr-43" value="&lt;p style=&quot;margin: 4px 0px 0px;&quot;&gt;&lt;b&gt;MESSAGE&lt;/b&gt;&lt;/p&gt;&lt;hr style=&quot;border-style:solid;&quot; size=&quot;1&quot;&gt;&lt;div style=&quot;height: 2px;&quot;&gt;재고가 부족합니다.&lt;/div&gt;" style="verticalAlign=middle;align=center;overflow=fill;html=1;whiteSpace=wrap;" vertex="1" parent="1">
          <mxGeometry x="1100" y="916" width="180" height="52" as="geometry" />
        </mxCell>
        <mxCell id="TvJxn3U8qlSnxqmgQSPr-44" value="NO" style="text;html=1;align=center;verticalAlign=middle;resizable=0;points=[];autosize=1;strokeColor=none;fillColor=none;" vertex="1" parent="1">
          <mxGeometry x="937" y="968" width="40" height="30" as="geometry" />
        </mxCell>
      </root>
    </mxGraphModel>
  </diagram>
</mxfile>
